# Blender v2.79 (sub 0) OBJ File: 'cube.blend'
# www.blender.org
mtllib cube.mtl
o Cube
v 0.099030 0.016461 -2.375267
v 0.222654 -0.057220 -2.100356
v -0.059154 -0.130902 -1.993379
v -0.182777 -0.057220 -2.268291
v 0.059154 0.308746 -2.278998
v 0.182777 0.235064 -2.004086
v -0.099030 0.161383 -1.897110
v -0.222654 0.235064 -2.172021
v -0.173696 -0.109571 -2.108817
v -0.126555 -0.137668 -2.003986
v -0.234016 -0.165764 -1.963193
v -0.281157 -0.137668 -2.068024
v -0.188902 0.001885 -2.072107
v -0.141761 -0.026212 -1.967276
v -0.249222 -0.054309 -1.926483
v -0.296363 -0.026212 -2.031314
v 0.103468 -0.109571 -1.994012
v 0.150608 -0.137668 -1.889181
v 0.043148 -0.165764 -1.848388
v -0.003993 -0.137668 -1.953219
v 0.088262 0.001885 -1.957302
v 0.135403 -0.026212 -1.852471
v 0.027942 -0.054309 -1.811678
v -0.019199 -0.026212 -1.916509
v -0.498244 -0.201129 -1.966308
v 0.232188 -0.201129 -1.663754
v -0.223264 0.055041 -2.630169
v 0.507168 0.055041 -2.327614
vn 0.9082 0.2374 -0.3447
vn -0.9082 -0.2374 0.3447
vn 0.9082 0.2375 -0.3448
vn -0.9082 -0.2375 0.3447
vn 0.1285 -0.9419 -0.3102
vn -0.1285 0.9419 0.3102
vn 0.3984 -0.2374 0.8859
vn -0.3984 0.2374 -0.8859
vn -0.3984 0.2375 -0.8859
usemtl Red
s off
f 1//1 6//1 2//1
f 7//2 4//2 3//2
f 13//3 10//3 9//3
f 11//2 16//2 12//2
f 17//1 22//1 18//1
f 23//2 20//2 19//2
f 1//1 5//1 6//1
f 7//2 8//2 4//2
f 13//1 14//1 10//1
f 11//4 15//4 16//4
f 17//1 21//1 22//1
f 23//2 24//2 20//2
usemtl Green
f 1//5 3//5 4//5
f 8//6 6//6 5//6
f 9//5 11//5 12//5
f 13//6 15//6 14//6
f 18//5 20//5 17//5
f 24//6 22//6 21//6
f 1//5 2//5 3//5
f 8//6 7//6 6//6
f 9//5 10//5 11//5
f 13//6 16//6 15//6
f 18//5 19//5 20//5
f 24//6 23//6 22//6
usemtl Blue
f 6//7 3//7 2//7
f 1//8 8//8 5//8
f 14//7 11//7 10//7
f 9//9 16//9 13//9
f 22//7 19//7 18//7
f 17//8 24//8 21//8
f 6//7 7//7 3//7
f 1//8 4//8 8//8
f 14//7 15//7 11//7
f 9//8 12//8 16//8
f 22//7 23//7 19//7
f 17//8 20//8 24//8
usemtl Plane
f 26//6 27//6 25//6
f 26//6 28//6 27//6
