# Blender v2.79 (sub 0) OBJ File: 'cube.blend'
# www.blender.org
mtllib cube.mtl
o Cube.004
v -0.427992 -0.368071 0.353423
v 0.427992 -0.368071 0.353423
v -0.427992 -0.368071 -0.463304
v 0.427992 -0.368071 -0.463304
v -0.427992 0.383921 0.353423
v 0.427992 0.383921 0.353423
v -0.427992 0.383921 -0.463304
v 0.427992 0.383921 -0.463304
vn 0.0000 0.0000 1.0000
vn -1.0000 0.0000 0.0000
vn 1.0000 0.0000 0.0000
usemtl Plane
s off
f 4//1 8//1 7//1 3//1
f 2//2 6//2 8//2 4//2
f 3//3 7//3 5//3 1//3
l 2 1
o Cube.003
v 0.103333 -0.358362 0.037772
v 0.160973 -0.358362 0.095411
v 0.103333 -0.358362 0.153050
v 0.045694 -0.358362 0.095411
v 0.103334 -0.276848 0.037772
v 0.160973 -0.276848 0.095411
v 0.103333 -0.276848 0.153050
v 0.045694 -0.276848 0.095411
vn 0.7071 0.0000 -0.7071
vn -0.7071 -0.0000 0.7071
vn 0.0000 -1.0000 -0.0000
vn 0.0000 1.0000 0.0000
vn 0.7071 -0.0000 0.7071
vn -0.7071 0.0000 -0.7071
usemtl Red
s off
f 9//4 13//4 14//4 10//4
f 11//5 15//5 16//5 12//5
usemtl Green
f 9//6 10//6 11//6 12//6
f 13//7 16//7 15//7 14//7
usemtl Blue
f 10//8 14//8 15//8 11//8
f 13//9 9//9 12//9 16//9
o Cube.002
v -0.103334 -0.358362 0.037772
v -0.045694 -0.358362 0.095411
v -0.103334 -0.358362 0.153050
v -0.160973 -0.358362 0.095411
v -0.103333 -0.276848 0.037772
v -0.045694 -0.276848 0.095411
v -0.103334 -0.276848 0.153050
v -0.160973 -0.276848 0.095411
vn 0.7071 -0.0000 -0.7071
vn -0.7071 -0.0000 0.7071
vn 0.0000 -1.0000 0.0000
vn 0.0000 1.0000 0.0000
vn 0.7071 -0.0000 0.7071
vn -0.7071 0.0000 -0.7071
usemtl Red
s off
f 17//10 21//10 22//10 18//10
f 19//11 23//11 24//11 20//11
usemtl Green
f 17//12 18//12 19//12 20//12
f 21//13 24//13 23//13 22//13
usemtl Blue
f 18//14 22//14 23//14 19//14
f 21//15 17//15 20//15 24//15
o Cube.001
v -0.000000 -0.357671 -0.218842
v 0.151155 -0.357671 -0.067687
v -0.000000 -0.357671 0.083468
v -0.151155 -0.357671 -0.067687
v 0.000000 -0.143906 -0.218842
v 0.151155 -0.143906 -0.067687
v -0.000000 -0.143906 0.083468
v -0.151155 -0.143906 -0.067687
vn 0.7071 0.0000 -0.7071
vn -0.7071 -0.0000 0.7071
vn 0.0000 -1.0000 0.0000
vn 0.0000 1.0000 -0.0000
vn 0.7071 -0.0000 0.7071
vn -0.7071 0.0000 -0.7071
usemtl Red
s off
f 25//16 29//16 30//16 26//16
f 27//17 31//17 32//17 28//17
usemtl Green
f 25//18 26//18 27//18 28//18
f 29//19 32//19 31//19 30//19
usemtl Blue
f 26//20 30//20 31//20 27//20
f 29//21 25//21 28//21 32//21
o Cube
v -0.427992 -0.368071 0.353423
v 0.427992 -0.368071 0.353423
v -0.427992 -0.368071 -0.463304
v 0.427992 -0.368071 -0.463304
vn 0.0000 1.0000 0.0000
usemtl Plane
s 1
f 33//22 34//22 36//22 35//22
