# Blender v2.79 (sub 0) OBJ File: 'normals_test.blend'
# www.blender.org
mtllib normals_test.mtl
o Plane.001
v -0.100000 -0.217995 0.010295
v -0.100000 -0.486104 -0.190401
v -0.100000 -0.017299 -0.257815
v -0.100000 -0.285409 -0.458510
v 0.100000 -0.217995 0.010295
v 0.100000 -0.486104 -0.190401
v 0.100000 -0.017299 -0.257815
v 0.100000 -0.285409 -0.458510
vn 1.0000 0.0000 0.0000
usemtl None
s 1
f 1//1 2//1 4//1 3//1
f 5//1 6//1 8//1 7//1
o Cube_Cube.003
v -0.558156 -0.733630 0.112354
v -0.558156 -0.064669 -0.781315
v 0.558156 -0.733630 0.112354
v 0.558156 -0.064669 -0.781315
vn 0.0000 0.8005 0.5992
usemtl White
s 1
f 10//2 9//2 11//2 12//2
