# Blender v2.79 (sub 0) OBJ File: 'boxes.blend'
# www.blender.org
mtllib sphere_box.mtl
o Cube.003_Cube.002
v -0.470503 -0.510471 -0.296215
v -0.470503 0.169198 -0.296215
v -0.152288 -0.510471 -0.429447
v -0.152288 0.169198 -0.429447
v -0.337271 -0.510471 0.022000
v -0.337271 0.169198 0.022000
v -0.019056 -0.510471 -0.111232
v -0.019056 0.169198 -0.111232
vn -0.3862 0.0000 -0.9224
vn 0.9224 0.0000 -0.3862
vn 0.3862 0.0000 0.9224
vn -0.9224 0.0000 0.3862
vn 0.0000 -1.0000 -0.0000
vn 0.0000 1.0000 0.0000
usemtl White
s off
f 2//1 3//1 1//1
f 4//2 7//2 3//2
f 8//3 5//3 7//3
f 6//4 1//4 5//4
f 7//5 1//5 3//5
f 4//6 6//6 8//6
f 2//1 4//1 3//1
f 4//2 8//2 7//2
f 8//3 6//3 5//3
f 6//4 2//4 1//4
f 7//5 5//5 1//5
f 4//6 2//6 6//6
o Cube.002_Cube
v -0.034014 -0.510471 0.333991
v -0.034014 -0.165491 0.333991
v 0.076056 -0.510471 0.007041
v 0.076056 -0.165491 0.007041
v 0.292936 -0.510471 0.444061
v 0.292936 -0.165491 0.444061
v 0.403006 -0.510471 0.117111
v 0.403006 -0.165491 0.117111
vn -0.9477 0.0000 -0.3191
vn 0.3191 0.0000 -0.9477
vn 0.9477 0.0000 0.3191
vn -0.3191 0.0000 0.9477
vn 0.0000 -1.0000 0.0000
vn 0.0000 1.0000 0.0000
usemtl White
s off
f 10//7 11//7 9//7
f 12//8 15//8 11//8
f 16//9 13//9 15//9
f 14//10 9//10 13//10
f 11//11 13//11 9//11
f 12//12 14//12 16//12
f 10//7 12//7 11//7
f 12//8 16//8 15//8
f 16//9 14//9 13//9
f 14//10 10//10 9//10
f 11//11 15//11 13//11
f 12//12 10//12 14//12
o Cube.001
v -0.184115 0.572382 0.184115
v -0.184115 0.605841 0.184115
v -0.184115 0.572382 -0.184115
v -0.184115 0.605841 -0.184115
v 0.184115 0.572382 0.184115
v 0.184115 0.605841 0.184115
v 0.184115 0.572382 -0.184115
v 0.184115 0.605841 -0.184115
vn -1.0000 0.0000 0.0000
vn 0.0000 0.0000 -1.0000
vn 1.0000 0.0000 0.0000
vn 0.0000 0.0000 1.0000
vn 0.0000 -1.0000 0.0000
vn 0.0000 1.0000 0.0000
usemtl Light
s off
f 18//13 19//13 17//13
f 20//14 23//14 19//14
f 24//15 21//15 23//15
f 22//16 17//16 21//16
f 23//17 17//17 19//17
f 20//18 22//18 24//18
f 18//13 20//13 19//13
f 20//14 24//14 23//14
f 24//15 22//15 21//15
f 22//16 18//16 17//16
f 23//17 21//17 17//17
f 20//18 18//18 22//18
o Cube_Cube.003
v -0.558156 -0.510471 0.558156
v -0.558156 0.605841 0.558156
v -0.558156 -0.510471 -0.558156
v -0.558156 0.605841 -0.558156
v 0.558156 -0.510471 0.558156
v 0.558156 0.605841 0.558156
v 0.558156 -0.510471 -0.558156
v 0.558156 0.605841 -0.558156
vn 0.7071 0.7071 0.0000
vn -0.5773 0.5773 0.5773
vn 0.5773 0.5773 0.5773
vn -0.7071 -0.7071 0.0000
vn 0.5773 -0.5773 0.5773
vn -0.5773 -0.5773 0.5773
vn -0.7071 0.7071 0.0000
vn 0.7071 -0.7071 0.0000
usemtl White
s 1
f 25//19 31//20 27//21
f 30//22 28//23 32//24
f 25//19 29//25 31//20
f 30//22 26//26 28//23
usemtl Blue
f 31//20 28//23 27//21
f 31//20 32//24 28//23
usemtl Green
f 27//21 26//26 25//19
f 27//21 28//23 26//26
usemtl Red
f 29//25 32//24 31//20
f 29//25 30//22 32//24
