# Blender v2.79 (sub 0) OBJ File: 'triangle_test.blend'
# www.blender.org
mtllib triangle_test.mtl
o Sphere
v 0.113485 0.082373 0.570527
v 0.120475 -0.035742 0.605668
v 0.005584 0.082373 0.581704
v 0.005584 -0.035742 0.617534
v -0.113485 0.082373 0.570527
v -0.120475 -0.035742 0.605668
vn 0.0985 0.2890 0.9522
vn 0.0046 0.2903 0.9569
vn 0.0043 0.2902 0.9569
vn -0.0896 0.2890 0.9531
vn -0.0897 0.2889 0.9531
vn 0.0986 0.2891 0.9522
usemtl White.001
s 1
f 2//1 3//2 4//3
f 4//3 5//4 6//5
f 2//1 1//6 3//2
f 4//3 3//2 5//4
